<svg xmlns="http://www.w3.org/2000/svg" width="100%" height="100%" viewBox="0 0 1152 576"><rect x="96" y="48" width="960" height="480" stroke="black" stroke-width="1" fill="white"/> <text x="96" y="36" font-family="arial" font-size="20" fill="blue"> Section 03 -- Equipe 6163 -- Pac Bot </text><text x="96" y="553" font-family="arial" font-size="20" fill="blue">AIRE: 1936 pouces carres</text><polygon points="188,230 518,450 628,450 848,450 958,450 958,340 958,230 738,120 408,120 " width="770" height="10" stroke="black" stroke-width="2" fill="green" /><rect x="188" y="450" width="10" height="10" stroke="red" stroke-width="1" fill="red"/><rect x="188" y="340" width="10" height="10" stroke="black" stroke-width="1" fill="black"/><circle cx="188" cy="230" r="10" stroke="black" stroke-width="1" fill="grey" /><rect x="188" y="120" width="10" height="10" stroke="black" stroke-width="1" fill="black"/><rect x="298" y="450" width="10" height="10" stroke="black" stroke-width="1" fill="black"/><rect x="298" y="340" width="10" height="10" stroke="black" stroke-width="1" fill="black"/><rect x="298" y="230" width="10" height="10" stroke="black" stroke-width="1" fill="black"/><rect x="298" y="120" width="10" height="10" stroke="black" stroke-width="1" fill="black"/><rect x="408" y="450" width="10" height="10" stroke="black" stroke-width="1" fill="black"/><rect x="408" y="340" width="10" height="10" stroke="black" stroke-width="1" fill="black"/><rect x="408" y="230" width="10" height="10" stroke="black" stroke-width="1" fill="black"/><circle cx="408" cy="120" r="10" stroke="black" stroke-width="1" fill="grey" /><circle cx="518" cy="450" r="10" stroke="black" stroke-width="1" fill="grey" /><rect x="518" y="340" width="10" height="10" stroke="black" stroke-width="1" fill="black"/><circle cx="518" cy="230" r="10" stroke="black" stroke-width="1" fill="grey" /><rect x="518" y="120" width="10" height="10" stroke="black" stroke-width="1" fill="black"/><circle cx="628" cy="450" r="10" stroke="black" stroke-width="1" fill="grey" /><rect x="628" y="340" width="10" height="10" stroke="black" stroke-width="1" fill="black"/><rect x="628" y="230" width="10" height="10" stroke="black" stroke-width="1" fill="black"/><circle cx="628" cy="120" r="10" stroke="black" stroke-width="1" fill="grey" /><rect x="738" y="450" width="10" height="10" stroke="black" stroke-width="1" fill="black"/><rect x="738" y="340" width="10" height="10" stroke="black" stroke-width="1" fill="black"/><circle cx="738" cy="230" r="10" stroke="black" stroke-width="1" fill="grey" /><circle cx="738" cy="120" r="10" stroke="black" stroke-width="1" fill="grey" /><circle cx="848" cy="450" r="10" stroke="black" stroke-width="1" fill="grey" /><circle cx="848" cy="340" r="10" stroke="black" stroke-width="1" fill="grey" /><circle cx="848" cy="230" r="10" stroke="black" stroke-width="1" fill="grey" /><rect x="848" y="120" width="10" height="10" stroke="black" stroke-width="1" fill="black"/><circle cx="958" cy="450" r="10" stroke="black" stroke-width="1" fill="grey" /><circle cx="958" cy="340" r="10" stroke="black" stroke-width="1" fill="grey" /><circle cx="958" cy="230" r="10" stroke="black" stroke-width="1" fill="grey" /><rect x="958" y="120" width="10" height="10" stroke="black" stroke-width="1" fill="black"/></svg>